:SAMPLES-PER-SECOND 30
:FULLY-SPECIFIED
:DEGREES
66
root  -3.13832 40.9403 0.74764 -177.79 -82.514 179.343
RightUpLeg  1.66671 -0.0747574 -0.340824
RightLeg  -0.589811 -9.64669 -0.269706
RightFoot  -1.57599 -0.196482 2.08107
RightToes  -3.10678e-008 1.75238e-005 3.56266e-009
Spine  -4.27174 2.2523 0.381632
Spine1  3.24883 2.42698 -0.625971
HEad  -10.7399 -2.83125 2.99453
LeftShoulder1  1.14123 -2.51522 -11.83
LeftArm  -59.2015 63.2278 -54.5675
LeftForeArm  176.873 -5.95674 13.8289
LeftHand  -1.03795 -6.44883 9.92013
RightShoulder  0.0193144 -3.37714 9.26228
RightArm  3.78486 80.6978 79.6853
RightForeArm  51.9281 5.68522 0.720545
RightHand  0.388995 5.51366 3.81482
LeftUpLeg  3.6799 0.786994 1.52293
LeftLeg  -2.46025 22.1369 -1.04141
LeftFoot  -1.70835 0.256928 -2.92765
LeftToes  4.76857e-008 1.46588e-008 1.31384e-009
67
root  -3.06866 40.944 0.807572 -178.73 -82.2111 -179.819
RightUpLeg  1.57833 -0.0326174 -0.323857
RightLeg  -0.48882 -9.36421 -0.295931
RightFoot  -1.4065 -0.208404 2.26129
RightToes  -3.10678e-008 1.75238e-005 3.56266e-009
Spine  -3.45833 1.8271 1.83694
Spine1  2.5743 2.22248 -2.32099
HEad  -11.125 -2.14734 3.10763
LeftShoulder1  1.35257 -3.0082 -13.8022
LeftArm  -56.6496 57.7495 -53.0408
LeftForeArm  174.083 -5.2962 14.298
LeftHand  0.0704996 -1.94878 8.29515
RightShoulder  0.221609 -2.23372 10.5124
RightArm  0.105271 77.5363 76.3801
RightForeArm  53.4279 6.09683 1.20071
RightHand  0.395585 5.37985 3.94329
LeftUpLeg  3.63377 0.826103 1.54342
LeftLeg  -2.2962 22.3833 -0.987895
LeftFoot  -1.72012 0.247774 -2.80316
LeftToes  4.76857e-008 1.46588e-008 1.31384e-009
68
root  -2.98806 40.9481 0.87806 -179.184 -81.6794 -179.448
RightUpLeg  1.49446 0.0956723 -0.315352
RightLeg  -0.557124 -8.97239 -0.390829
RightFoot  -1.19112 -0.215985 2.37319
RightToes  -3.10678e-008 1.75238e-005 3.56266e-009
Spine  -3.15945 1.44486 2.62353
Spine1  2.59032 1.89352 -2.91635
HEad  -11.4154 -1.08443 2.43265
LeftShoulder1  1.84088 -3.95954 -18.0259
LeftArm  -52.6263 49.295 -50.6843
LeftForeArm  163.945 -3.95482 14.6719
LeftHand  1.45772 13.0722 19.4669
RightShoulder  0.438606 -1.18515 11.9243
RightArm  -2.16814 73.1771 75.1464
RightForeArm  55.3557 6.7261 1.65592
RightHand  0.358747 5.24585 3.58541
LeftUpLeg  3.72827 0.86773 1.51727
LeftLeg  -2.45505 22.7275 -1.10272
LeftFoot  -1.60775 0.239405 -2.66975
LeftToes  4.76857e-008 1.46588e-008 1.31384e-009
69
root  -2.88097 40.9511 0.977013 -179.207 -81.2272 -179.302
RightUpLeg  1.18624 0.169919 -0.387947
RightLeg  -0.703864 -8.68666 -0.422068
RightFoot  -0.94289 -0.213408 2.32671
RightToes  -3.10678e-008 1.75238e-005 3.56266e-009
Spine  -2.92972 0.816631 3.32102
Spine1  2.23787 1.30009 -3.47672
HEad  -11.3108 0.417069 1.50306
LeftShoulder1  2.54887 -5.25427 -22.8228
LeftArm  -48.7027 38.5101 -48.2868
LeftForeArm  171.292 -2.40109 14.2864
LeftHand  -1.08974 -5.88423 9.89819
RightShoulder  0.946086 0.870557 14.6895
RightArm  -5.1596 68.1278 71.7398
RightForeArm  57.4275 6.87865 2.70893
RightHand  0.282442 4.51105 3.0297
LeftUpLeg  3.50613 0.793312 1.39214
LeftLeg  -2.58433 23.1959 -1.17906
LeftFoot  -1.43179 0.22883 -2.51413
LeftToes  4.76857e-008 1.46588e-008 1.31384e-009
70
root  -2.76501 40.9562 1.06859 -179.284 -81.2187 -179.033
RightUpLeg  1.00453 0.272153 -0.420908
RightLeg  -1.20303 -8.93155 -0.363921
RightFoot  -0.586159 -0.213523 2.3214
RightToes  -3.10678e-008 1.75238e-005 3.56266e-009
Spine  -3.20326 -0.0970391 4.21017
Spine1  2.29076 0.510904 -4.60757
HEad  -10.966 2.36395 1.22565
LeftShoulder1  3.1713 -6.41768 -25.8601
LeftArm  -46.1819 25.29 -47.6737
LeftForeArm  166.369 -1.7753 14.8277
LeftHand  -0.811808 -4.57977 9.73637
RightShoulder  1.74273 3.41221 18.7797
RightArm  -9.31638 61.4193 67.3284
RightForeArm  61.5077 6.67341 3.1848
RightHand  0.278441 5.63849 2.60296
LeftUpLeg  3.18162 0.779122 1.36009
LeftLeg  -2.79695 23.1357 -1.32545
LeftFoot  -1.11512 0.212134 -2.29846
LeftToes  4.76857e-008 1.46588e-008 1.31384e-009
71
root  -2.65804 40.9577 1.14619 179.857 -81.3838 -178.273
RightUpLeg  1.08625 0.462896 -0.292452
RightLeg  -1.4932 -9.44312 -0.438753
RightFoot  -0.315707 -0.211709 2.28576
RightToes  -3.10678e-008 1.75238e-005 3.56266e-009
Spine  -3.87127 -0.538538 4.00391
Spine1  3.18735 -0.084944 -3.85642
HEad  -10.4966 3.45615 0.550809
LeftShoulder1  3.32857 -6.59605 -26.8622
LeftArm  -43.96 8.28674 -49.8253
LeftForeArm  160.385 -1.84543 15.7059
LeftHand  -0.772029 -5.1789 8.7725
RightShoulder  2.44827 5.22535 21.8199
RightArm  -13.8924 53.3073 62.3348
RightForeArm  64.1208 6.59033 3.57478
RightHand  0.261747 5.92977 2.34222
LeftUpLeg  3.13755 0.883683 1.44444
LeftLeg  -2.93147 22.7828 -1.4536
LeftFoot  -0.837184 0.177065 -1.87106
LeftToes  4.76857e-008 1.46588e-008 1.31384e-009
72
root  -2.56057 40.9632 1.20286 178.526 -82.5172 -177.079
RightUpLeg  1.39326 0.346011 -0.254673
RightLeg  -1.90321 -10.6282 -0.190531
RightFoot  -0.0722033 -0.21654 2.35297
RightToes  -3.10678e-008 1.75238e-005 3.56266e-009
Spine  -4.31633 -0.635066 2.73752
Spine1  3.55349 -0.499878 -1.93787
HEad  -9.51735 2.41482 0.463236
LeftShoulder1  3.12942 -6.12123 -26.4004
LeftArm  -38.2658 -10.0226 -52.8608
LeftForeArm  148.188 -1.17872 14.118
LeftHand  -0.78121 -5.2452 8.82485
RightShoulder  3.03564 6.42483 24.4703
RightArm  -17.718 43.2243 55.0984
RightForeArm  64.9531 6.12083 4.95245
RightHand  0.216662 5.11737 2.08653
LeftUpLeg  2.77012 0.90353 1.5618
LeftLeg  -2.47985 21.5837 -1.22952
LeftFoot  -0.720575 0.153845 -1.60857
LeftToes  4.76857e-008 1.46588e-008 1.31384e-009
73
root  -2.4863 40.9656 1.2134 177.619 -84.3664 -176.489
RightUpLeg  2.03156 -0.0207102 -0.356974
RightLeg  -2.34768 -12.2299 0.198237
RightFoot  0.0119972 -0.207993 2.21256
RightToes  -3.10678e-008 1.75238e-005 3.56266e-009
Spine  -4.41775 -0.440743 1.53817
Spine1  3.48405 -0.451041 -0.737122
HEad  -7.69928 -0.0421186 1.27386
LeftShoulder1  3.30145 -6.55475 -26.7297
LeftArm  -30.6406 -28.5877 -55.1746
LeftForeArm  131.687 0.0144438 11.0203
LeftHand  -0.886472 -4.87812 10.3014
RightShoulder  3.63387 7.56391 26.8193
RightArm  -21.6406 30.2736 48.315
RightForeArm  66.9882 5.61716 5.32158
RightHand  0.219159 5.39011 2.03914
LeftUpLeg  2.49519 1.071 1.72115
LeftLeg  -1.88785 19.5186 -1.1645
LeftFoot  -0.66985 0.123014 -1.27427
LeftToes  4.76857e-008 1.46588e-008 1.31384e-009
74
root  -2.45246 40.9619 1.18675 172.834 -86.977 -171.889
RightUpLeg  2.62129 -0.303093 -0.394009
RightLeg  -2.66633 -14.6165 0.522402
RightFoot  -0.0872928 -0.21059 2.24519
RightToes  -3.10678e-008 1.75238e-005 3.56266e-009
Spine  -3.88259 -0.457035 -0.0702217
Spine1  2.70945 -0.560641 0.409015
HEad  -6.01409 -2.69508 2.27362
LeftShoulder1  3.13966 -6.43986 -25.4289
LeftArm  -21.3186 -45.3364 -63.0887
LeftForeArm  116.394 1.02443 9.17587
LeftHand  -0.859973 -4.75095 10.1215
RightShoulder  4.08454 8.0884 29.3119
RightArm  -23.758 16.2227 43.1934
RightForeArm  69.9116 4.19393 5.37215
RightHand  0.272514 5.18018 2.69328
LeftUpLeg  1.98215 1.04915 1.80756
LeftLeg  -1.1662 16.8432 -0.916283
LeftFoot  -0.647516 0.0927556 -0.956418
LeftToes  4.76857e-008 1.46588e-008 1.31384e-009
75
root  -2.47099 40.9574 1.14572 167.648 -89.7073 -166.53
RightUpLeg  2.83996 -0.499393 -0.383408
RightLeg  -2.83825 -17.1458 0.805623
RightFoot  -0.298252 -0.210205 2.23186
RightToes  -3.10678e-008 1.75238e-005 3.56266e-009
Spine  -3.49177 -0.716859 -2.6133
Spine1  2.49821 -1.14455 2.93963
HEad  -6.12367 -4.615 2.70187
LeftShoulder1  2.69297 -5.72424 -22.8852
LeftArm  -12.6519 -61.46 -70.5304
LeftForeArm  106.148 1.70276 8.07212
LeftHand  -0.797575 -4.75331 9.41081
RightShoulder  4.24538 8.18309 30.4081
RightArm  -25.0729 2.19777 40.6053
RightForeArm  75.4845 2.55421 4.62712
RightHand  0.374203 5.02779 3.86291
LeftUpLeg  1.25224 0.85313 1.81662
LeftLeg  -0.67566 14.2966 -0.644992
LeftFoot  -0.656929 0.0910278 -0.994573
LeftToes  4.76857e-008 1.46588e-008 1.31384e-009
